# xmcd
#
# Track frame offsets:
#	150
#	14420
#	31105
#	47937
#	58920
#	85117
#	98095
#	109877
#	126377
#	152290
#	166182
#
# Disc length: 2510 seconds
#
# Revision: 0
# Processed by: cddbd v1.4PL0 Copyright (c) Steve Scherf et al.
# Submitted via: dBpowerAMP V4.0
#
DISCID=8409cc0b
DTITLE=Angela Brown, Albert C.Humprey and Christian Chritst - Breath Taking Boogie Shaking
DYEAR=1900
DGENRE=Blues
TTITLE0=Leave my Baby for Me
TTITLE1=Kitchen Man
TTITLE2=Let´s Move Together
TTITLE3=Kansas City Blues
TTITLE4=St. James Infirmary
TTITLE5=Close My Eyes
TTITLE6=Lulu´s Back in Town
TTITLE7=I´ve Got a Good Thing
TTITLE8=You Don´t Love Me no More
TTITLE9=Breath Taking Boogie Shaking
TTITLE10=Wonderful World
EXTD=Angela Brown, Chicago, voice\nAlbert C.Humprey, Los Angeles, voice\nChristian Chritstl, Freising, voice and piano
EXTT0=
EXTT1=
EXTT2=
EXTT3=
EXTT4=
EXTT5=
EXTT6=
EXTT7=
EXTT8=
EXTT9=
EXTT10=
PLAYORDER=
